#!OML:ASF H:\MichaelJackson\Top Level 1\Subject 1\Session 1\male.ASF
:FULLY-SPECIFIED
:DEGREES
574
root -15.022 16.2509 -34.2522 27.0498 13.0363 2.46272
lowerback -7.91716 -2.5602 0.623902
upperback -2.26119 -3.41504 -1.68563
thorax 1.95351 -1.70642 -2.40777
lowerneck -16.7383 1.48615 8.42267
upperneck -4.51026 0.505237 -3.14916
head 1.47664 0.0661925 -2.49825
rclavicle 4.13472e-014 6.75868e-015
rhumerus 0.562984 -23.4349 -18.4015
rradius 69.0535
rwrist -30.3975
rhand -14.0629 -37.0261
rfingers 7.12502
rthumb 12.0684 -66.6581
lclavicle 4.13472e-014 6.75868e-015
lhumerus -39.1307 -33.8514 93.6212
lradius 57.318
lwrist 18.2681
lhand -2.42823 15.7355
lfingers 7.12502
lthumb 23.2626 44.3503
rfemur -47.0857 -6.52622 7.31626
rtibia 48.4635
rfoot -28.5013 -7.94585
rtoes -24.0853
lfemur -52.8656 13.8906 -10.8211
ltibia 56.5508
lfoot -7.41759 -3.82199
ltoes 23.4486
575
root -15.036 16.2876 -34.2309 26.8087 13.5226 2.05818
lowerback -7.83221 -2.60534 1.26786
upperback -2.22412 -3.52896 -1.58033
thorax 1.90702 -1.76322 -2.66582
lowerneck -16.6196 1.57621 8.23098
upperneck -4.64799 0.670615 -3.21124
head 1.41857 0.147885 -2.47042
rclavicle -1.37161e-014 -1.19271e-015
rhumerus 0.678792 -21.487 -19.3399
rradius 71.3653
rwrist -30.9096
rhand -14.9652 -37.7187
rfingers 7.12502
rthumb 11.1983 -67.3999
lclavicle -1.37161e-014 -1.19271e-015
lhumerus -39.1957 -32.7793 93.0569
lradius 57.5731
lwrist 17.8607
lhand -3.66029 15.3866
lfingers 7.12502
lthumb 22.0801 44.146
rfemur -46.4547 -6.57525 8.00935
rtibia 48.0206
rfoot -28.3745 -8.72896
rtoes -25.7228
lfemur -54.1507 15.4936 -12.5987
ltibia 58.1505
lfoot -7.16822 -1.91186
ltoes 20.7999
576
root -15.0561 16.3053 -34.2297 26.7361 13.6697 1.68205
lowerback -7.50888 -2.61579 1.71971
upperback -2.32889 -3.57828 -1.48831
thorax 1.59502 -1.79362 -2.80591
lowerneck -16.3504 1.65432 8.11406
upperneck -5.01235 0.818995 -3.39308
head 1.25963 0.214002 -2.49584
rclavicle -8.17005e-014 -2.26615e-014
rhumerus 0.888943 -19.3876 -20.3562
rradius 73.735
rwrist -31.1668
rhand -15.8687 -38.5448
rfingers 7.12502
rthumb 10.3269 -68.2712
lclavicle -8.17005e-014 -2.26615e-014
lhumerus -39.2377 -31.5629 92.4809
lradius 57.729
lwrist 17.3725
lhand -5.29083 13.5312
lfingers 7.12502
lthumb 20.514 42.4674
rfemur -46.2225 -6.12005 8.39717
rtibia 47.6404
rfoot -28.0726 -9.51747
rtoes -26.8761
lfemur -55.6787 17.1499 -14.5852
ltibia 59.4896
lfoot -6.92089 -0.154218
ltoes 27.0023
577
root -15.0764 16.3181 -34.2222 26.4444 13.8547 1.27318
lowerback -7.05149 -2.58363 2.04489
upperback -2.34771 -3.5558 -1.37545
thorax 1.3107 -1.78748 -2.84346
lowerneck -16.2279 1.74073 7.95617
upperneck -5.24469 0.971711 -3.46657
head 1.16903 0.288168 -2.47906
rclavicle -4.77083e-015 -1.03368e-014
rhumerus 0.966361 -17.4662 -21.2663
rradius 75.9436
rwrist -30.6316
rhand -16.396 -39.3923
rfingers 7.12502
rthumb 9.81816 -69.1434
lclavicle -4.77083e-015 -1.03368e-014
lhumerus -39.2647 -30.4548 91.9352
lradius 57.893
lwrist 16.7463
lhand -5.60011 14.0324
lfingers 7.12502
lthumb 20.2167 43.0004
rfemur -45.7052 -5.47917 8.75541
rtibia 47.2451
rfoot -27.7185 -10.4874
rtoes -27.845
lfemur -56.9456 18.8185 -16.5868
ltibia 60.5432
lfoot -6.98019 0.664912
ltoes 30.174
